<svg id="Layer_1" data-name="Layer 1" xmlns="http://www.w3.org/2000/svg" xmlns:xlink="http://www.w3.org/1999/xlink" viewBox="0 0 367 563"><defs><style>.cls-1{fill:none;}.cls-2{clip-path:url(#clip-path);}.cls-3{fill:#fff800;}</style><clipPath id="clip-path"><path class="cls-1" d="M171.27,38.39c36-41,139.27,9.91,130.59,79.86s45.56,99.63,48.8,121.44c8.59,57.77-37.71,73-87.92,89.62s-31.19,61.84-44.56,91.25C191.42,479.42,125,546.12,61.45,504.76S10.07,313.85,52.54,281.57s89.51-29.41,90.19-94.34C143,160.58,106.8,111.89,171.27,38.39Z"/></clipPath></defs><g class="cls-2"><path class="cls-3" d="M481.74,8.76c-92.52.77-185.23,3.91-277.7,3.92-88.79,0-177.85-3.13-266.7-3.91V4.15h544.4Z"/><path class="cls-3" d="M481.74,17.06c-50.52.85-101-3.25-151.55-1C285.35,18,241,27.82,196.08,27.7c-37.58-.09-74.29-9.62-111.72-11.82-48.92-2.87-98,2-147,1.19,0-1.84,0-2.77,0-4.62,49.27.68,98.58-2.2,147.83-.44,38.42,1.36,76.56,7.36,115,7.39,43.76,0,87.25-6.13,131-7.33,50.18-1.38,100.37,1,150.56.37Z"/><path class="cls-3" d="M481.74,25.35c-51.18.92-102.47-6.76-153.61-2.94-46.21,3.46-91.19,20.29-137.74,19.9C153.53,42,119.21,25.86,82.8,22.06c-48.14-5-97.17,4.18-145.45,3.31V20.76c48.69.9,97.73-5.83,146.34-2,36.85,2.9,72.47,15.32,109.6,15.5,45.74.21,90.48-12.67,136-15.27,50.78-2.91,101.62,2.69,152.42,1.77Z"/><path class="cls-3" d="M481.74,33.64c-51.88.66-104.19-11.25-156-5.64-46.84,5.07-91.54,29.25-139,28.51-37.15-.57-69.37-23.63-105.61-29.15C34,20.18-15.26,34.22-62.65,33.66V29.05c47.91.77,97-10.53,144.72-4.54,36.23,4.56,69.59,23.74,106.46,24.16,47,.53,92-19.53,138.59-23.69,51.43-4.59,103.13,4.89,154.62,4.05Z"/><path class="cls-3" d="M481.74,41.94c-52.49.12-106.27-16.57-158.58-9-46.79,6.76-90.4,38.45-138.32,37.38C146.6,69.44,116.1,39.23,79.35,31.93c-45.89-9.11-95.64,10-142,10V37.34c46.94.34,96.42-15.94,143-7.87,36.39,6.31,67.8,32.51,105.34,33.21,47.75.89,92.06-26.61,139-32.43,52-6.45,104.93,7.53,157.1,7.07Z"/><path class="cls-3" d="M481.74,50.23C428.84,49.61,373,27.69,320.38,37.32,274.15,45.79,232.44,85,184.47,83.66,144.58,82.55,115.29,45,77.53,35.94,32.79,25.21-17.33,49.51-62.65,50.24V45.63c45.89-.3,95.84-21.73,141.19-11.86,37.15,8.09,67,41.53,106,42.51,48,1.2,90.84-33.84,137.44-41.35,52.48-8.46,107.1,10.51,159.8,10.69Z"/><path class="cls-3" d="M481.74,58.52c-53-1.48-111.7-29-164.24-17.18C272.19,51.51,233.17,98,185.37,96.6c-41.91-1.26-70.56-46.33-109.68-57.07-43.83-12-93.92,17.41-138.35,19V53.92c44.9-1.1,95.08-27.69,139.37-16.35,38.33,9.82,67.26,50.7,108,51.88,47.92,1.4,88.53-41.08,134.39-50.31,52.62-10.58,109.65,13.78,162.63,14.77Z"/><path class="cls-3" d="M481.74,66.82c-30.26-1.38-59.05-8.42-88.49-15-24.79-5.5-53.35-13.51-78.66-6.73-44.17,11.82-79.77,65.33-127.3,64-44.11-1.25-72.72-54-113.42-66.24C30.58,29.79-18.88,64.3-62.66,66.82V62.21c44.11-2,94-33.7,137.53-21.18,39.81,11.44,68.37,59.9,111.24,61.17C233.79,103.62,271.38,54,316.21,43,368.58,30.3,428.83,60.31,481.74,62.2Z"/><path class="cls-3" d="M481.74,75.11c-31.11-2-60.43-10.25-90.48-17.93-24.42-6.24-54.39-16.23-79.54-8.37-43,13.43-74.46,73.47-121.74,72.37C144.45,120.12,113.29,61,72.1,46.08,51.16,38.49,27.73,47.43,8,55.15c-23.61,9.23-45.08,17.9-70.65,19.95V70.5c43.58-3,92.56-39.66,135.74-26.21,41.43,12.92,70.2,69,115.32,70.23,47.42,1.26,81.27-55.21,124.91-67.76,25.25-7.25,54.41,1.62,79.06,7.46,29.71,7.05,58.73,14.64,89.37,16.28Z"/><path class="cls-3" d="M481.74,83.4c-32-2.54-61.78-12.06-92.42-20.85-23.93-6.86-55.49-18.9-80.36-10-41.76,14.92-68.68,81-115.77,80.28-23.2-.35-46.05-24.2-62.34-38.21C112.58,78.89,93.36,58.12,70.43,49.36,49.16,41.24,26.21,51.21,6.71,60.2-16.4,70.84-37,80.76-62.67,83.39c0-1.84,0-2.77,0-4.61C-37,76.47-16,67.24,7.41,57.38c19.64-8.28,42.86-17.7,63.94-9.86,22.27,8.29,41.05,27.81,59,42.76,16.29,13.57,38.31,35.67,61,36.12,47.19.94,76.71-61.84,119.13-75.95,25-8.32,55.69,2.57,79.91,9.1,30.32,8.18,59.86,17,91.35,19.24Z"/><path class="cls-3" d="M481.74,91.7C449,88.61,418.66,77.9,387.47,68.07c-23.35-7.36-56.58-21.43-81.09-11.62C265.7,72.74,243.68,144.21,196.67,144c-24-.1-48.43-27-64.74-41.71C112.72,85,93.08,63.17,68.88,52.84,47.65,43.78,24.33,55.4,5.49,65.41c-22.6,12-42.29,23.1-68.16,26.27V87.07c25.77-2.88,46-13.33,68.82-24.59,19.4-9.54,42.12-19.94,63.58-11.61C93.19,60,112.77,81.72,131.31,98c16.29,14.34,39.83,39.57,63.4,39.81,47,.49,71.81-68,113.08-83.59,24.72-9.32,57,3.63,80.69,10.73,30.89,9.26,60.94,19.31,93.26,22.1Z"/><path class="cls-3" d="M481.74,100c-33.52-3.55-64.28-15.37-96-26.16C363.05,66.09,328.17,50.1,304,60.69c-39.78,17.47-56.8,93.73-103.88,94.07-24.86.19-50.69-29.52-67.07-44.81C113.24,91.39,92.86,67.73,67.5,56.68,45.82,47.24,22.94,59.74,4.37,70.87c-22.1,13.25-41,25.46-67,29.1V95.36C-36.71,92-17.4,80.36,5,67.79c18.71-10.51,41.84-22.55,63.27-13.3C93,65.16,112.94,87.81,132.44,105.7c16.34,15,41.38,43.16,65.79,43.14,47,0,66.82-73.72,107.08-90.55,24.34-10.19,58.31,4.76,81.38,12.3,31.42,10.27,61.94,21.48,95.05,24.79Z"/><path class="cls-3" d="M481.74,108.28c-34.19-3.89-65.33-16.73-97.44-28.37-22.13-8-58.48-25.69-82.27-14.51-39.19,18.41-51.29,98.8-98.6,99.66-25.66.48-52.71-31.62-69.19-47.45C113.82,98,92.75,72.6,66.31,61,44.16,51.35,21.7,64.56,3.4,76.71c-21.64,14.36-39.74,27.56-66.07,31.55v-4.61C-36.48,99.83-18,87.17,3.92,73.41c18.45-11.6,41.14-24.44,63-14.87,25.86,11.31,46.55,35.76,66.67,54.8,16.42,15.54,42.83,46.36,68,46,47.15-.59,62-78.75,101.45-96.67,24-10.88,59.53,5.88,82,13.76C417,87.66,447.91,100,481.74,103.67Z"/><path class="cls-3" d="M481.74,116.58c-34.76-4.07-66.2-17.82-98.63-30.17-22-8.37-58.81-27-82.71-15.7-39.53,18.67-46,102.9-94.19,104.2-26.42.72-54.34-33.21-71-49.53C114.41,104.92,92.72,77.9,65.35,66.06,42.77,56.29,20.65,70,2.61,83-18.63,98.32-36,112.37-62.67,116.55v-4.61c26.46-4.1,44.24-17.69,65.7-32.5,18.18-12.55,40.48-26,62.82-16.26C92.73,74.9,114.08,101,134.71,121c16.54,16,44,49,70,48.45,47.49-1.07,57.47-83.07,96.51-101.82,23.68-11.36,60.58,6.94,82.48,15.07,32.27,12,63.55,25.23,98,29.22Z"/><path class="cls-3" d="M481.74,124.87c-35.2-4-66.84-18.56-99.49-31.45-21.6-8.53-59.22-28-83-16.64-39.73,19-42.11,106-91,107.52-27.16.88-55.42-34.15-72.26-51-21-21-43.24-49.56-71.33-61.4-23-9.66-44.83,4.28-62.62,18-20.94,16.09-37.76,30.83-64.72,35v-4.61C-35.9,116-18.76,101.65,2.33,86,20.26,72.65,42.26,58.8,65,68.55c27.72,11.87,49.65,39.57,70.61,60.32,16.71,16.55,44.86,51.07,71.6,50.27,48.45-1.45,53-87,92.6-105.84C323.66,61.94,360.9,81,382.68,89.45c32.54,12.61,64.09,26.72,99.06,30.81Z"/><path class="cls-3" d="M481.74,133.16c-35.48-3.76-67.22-18.9-99.95-32.14-21.42-8.66-59.29-28.5-83.2-17.29-40.48,19-39.37,107.88-89.27,109.5-27.86.91-55.81-34.35-72.91-51.74-21-21.36-43.58-51.24-72.12-62.74C41.08,69.39,19.34,83.27,1.74,97.39-19,114-35.35,129.27-62.66,133.16c0-1.85,0-2.78,0-4.62C-35.55,124.46-19,109.47,1.88,93.11c17.7-13.89,39.5-27.85,62.58-18.29,28.33,11.73,50.7,40.86,71.77,62.09,17,17.07,45.16,52.32,72.64,51.41,49.27-1.62,50-89.52,90-108.57,23.82-11.36,61.63,8.38,83.11,17,32.71,13.07,64.4,27.89,99.75,31.84Z"/><path class="cls-3" d="M481.74,141.46c-35.78-2.84-67-18.84-99.52-32.76-21.67-9.28-58.41-28.59-83-17.78-41.6,18.31-38.92,109.45-89.74,110.75-28.18.72-55.68-34.26-72.92-51.94C115.69,128.31,93,97.84,64.37,86.58c-23.35-9.17-45,4.6-62.54,18.87-20.73,16.83-37,32.41-64.5,36,0-1.84,0-2.77,0-4.61C-35.21,133.14-19,117.76,1.72,101,19.26,86.75,41,73,64.24,82.17c28.63,11.31,51.28,41.64,72.21,63,17.21,17.6,44.85,52.69,73,51.84,50.35-1.53,48.23-91.1,89.15-109.91,24.05-11.07,61.8,8.68,83.21,17.46,32.71,13.39,64.38,28.8,100,32.26Z"/><path class="cls-3" d="M481.74,149.75c-35.9-2.25-65.88-19.61-97.7-34.81-21.14-10.09-57.29-30.08-81.92-19-42,18.86-40.77,112.77-92,113.85-28.28.6-55.64-34.46-72.87-52.25C116.42,136,93.75,105.26,65,94,41.51,84.8,19.9,98.79,2.28,113.19c-20.81,17-37.2,33.05-64.95,36.57v-4.61C-35,141.6-18.76,125.83,2,108.93,19.58,94.61,41.18,80.78,64.6,90c28.68,11.23,51.35,41.84,72.21,63.29C154.06,171,181.48,206,209.7,205.31c51.07-1.18,48.68-93.55,90.57-111.89,24.72-10.81,61,8.57,82.6,18.22,32.28,14.44,63,31,98.87,33.5Z"/><path class="cls-3" d="M481.74,158.05c-35.83-2.23-64.1-21.31-94.74-38.16-20.57-11.32-55.21-32.27-80.15-21-43.07,19.47-43.2,117.69-95.59,118.78-28.34.59-55.71-34.84-72.85-52.7C117.64,143.33,95,112.21,66.21,100.9,42.44,91.55,20.72,106,3,120.58c-21,17.3-37.62,33.91-65.7,37.48v-4.62c27.88-3.52,44.37-19.8,65.25-36.93C20.23,102,41.88,87.87,65.51,97.13c28.73,11.27,51.39,42.19,72.2,63.76,17.2,17.82,44.55,53,72.85,52.43,51.7-1.06,51-96.75,93.45-115.84,24.77-11.14,60.29,9.2,81.21,19.81,31.36,15.89,60.63,34,96.52,36.15Z"/><path class="cls-3" d="M481.74,166.34c-35.62-2.67-61.81-23.82-90.8-42.59-19.73-12.78-52.51-35.26-77.81-23.62-26.28,12.1-39.1,52.51-52.05,76.14-10.27,18.73-23.58,48.51-48.25,49.11C184.48,226.06,157,190,140,172.1c-20.73-21.84-43.35-53.34-72.19-64.79-24.06-9.56-46,5.58-63.79,20.38-21.21,17.66-38.19,34.94-66.68,38.66v-4.61c28.25-3.62,45-20.52,66.11-38,17.72-14.67,39.54-29.41,63.43-20,28.8,11.37,51.44,42.65,72.2,64.39,17.08,17.88,44.49,53.56,72.84,52.94,24.26-.53,37.11-29.1,47.15-47.61,12.5-23,24.74-62.19,50.4-73.87,25.1-11.43,59,10.15,79.18,22.09,30,17.68,57.35,37.63,93.1,40Z"/><path class="cls-3" d="M481.74,174.64c-35.32-3.51-59.16-27.08-86.09-47.92-18.62-14.41-49.22-38.91-75-26.76-27.55,13-41.5,55.84-55.39,80.73-10.71,19.19-25,51.46-50.52,52.22-28.37.86-56.08-36-72.87-53.94-20.68-22.08-43.26-54-72.18-65.63-24.37-9.83-46.67,6.19-64.53,21.21-21.49,18.09-38.88,36.13-67.86,40.09V170c28.7-3.82,45.85-21.43,67.19-39.27,17.8-14.89,39.9-30.4,64.09-20.73,28.88,11.53,51.48,43.2,72.19,65.15,16.9,17.91,44.49,54.31,72.85,53.56,25-.66,38.76-31.5,49.22-50.43,13.34-24.16,26.65-65.63,53.47-78.1,25.49-11.85,57.34,11.47,76.6,25,28.13,19.68,53.31,41.86,88.8,44.85Z"/><path class="cls-3" d="M481.74,182.93c-35-4.67-56.27-31-80.77-53.91-17.25-16.14-45.42-43.08-71.77-30.3-29,14.06-44.17,59.51-59.11,85.83-11.2,19.73-26.73,54.8-53.12,55.78-28.37,1-56.32-36.75-72.9-54.69C123.43,163.3,100.9,131,71.9,119.08,47.19,108.93,24.47,126,6.53,141.24c-21.84,18.57-39.68,37.4-69.2,41.69v-4.61c29.21-4.1,46.8-22.48,68.44-40.78,17.9-15.13,40.37-31.59,64.89-21.62,29,11.76,51.51,43.84,72.18,66,16.69,17.93,44.51,55.21,72.88,54.27,25.87-.86,40.71-34.34,51.64-53.76,14.34-25.5,28.83-69.49,57-82.94,26-12.41,55.55,13.12,73.59,28.29,25.89,21.77,48.62,46.52,83.79,50.51Z"/><path class="cls-3" d="M481.74,191.22c-34.57-6.11-53.21-35.52-75-60.37-15.34-17.47-41.54-48.09-68.32-34.12-30.57,16-46.77,63-63.09,91.3-11.71,20.3-28.6,58.42-55.94,59.63-28.37,1.26-56.58-37.53-72.94-55.49-20.6-22.61-43.07-55.37-72.16-67.55C49.21,114.12,26,132.29,8,147.8c-22.2,19.09-40.53,38.76-70.63,43.42v-4.61C-32.9,182.16-14.84,163,7.15,144.16c18-15.37,40.92-32.9,65.78-22.61,29,12,51.54,44.54,72.17,67,16.47,17.95,44.55,56.19,72.91,55,26.81-1.08,42.93-37.48,54.35-57.46C288,158.85,303.52,113,333.21,97.91c26.42-13.41,53.94,15.32,70.27,32,23.33,23.79,43.47,51.45,78.26,56.73Z"/><path class="cls-3" d="M481.74,199.52c-34.14-7.76-50-40.54-69.06-67.11C399.23,113.63,375.54,79.23,348,94.33c-32.18,17.62-49.56,66.81-67.21,97-12.24,20.91-30.56,62.2-58.88,63.65s-56.84-38.31-73-56.31c-20.57-22.91-43-56.11-72.15-68.59-25.4-10.86-49.15,8.5-67.27,24.25C-13.13,173.92-32,194.44-62.66,199.51V194.9c30.35-4.84,48.91-24.89,71.28-44.22,18.07-15.61,41.52-34.3,66.73-23.65,29.12,12.31,51.56,45.27,72.15,68,16.27,18,44.58,57.2,73,55.85,27.78-1.33,45.29-40.84,57.23-61.4,16.91-29.11,33.63-77.12,64.91-93.8,27.12-14.46,52.23,17.78,66.74,35.86,20.58,25.65,38,56.52,72.4,63.34Z"/><path class="cls-3" d="M481.74,207.81c-33.7-9.53-46.78-45.88-63-73.89-11.5-19.81-32.56-58.4-61.1-42.08-33.88,19.37-52.23,70.62-71.38,102.67-12.83,21.49-32.49,66-61.84,67.71-28.43,1.63-57.07-39.09-73-57.14-20.54-23.21-42.87-56.86-72.14-69.64-25.72-11.23-50,9.35-68.24,25.32-23,20.18-42.34,41.54-73.62,47v-4.61c30.95-5.26,50-26.16,72.78-46,18.16-15.85,42.16-35.75,67.71-24.73C107,145,129.41,178.45,150,201.49c16.07,18,44.6,58.22,73,56.68,28.76-1.56,47.73-44.28,60.2-65.45,18.25-31,36.15-81.13,69.06-99.5,28-15.63,50.53,20.58,63.11,39.85,17.79,27.25,32.45,61.59,66.39,70.13Z"/><path class="cls-3" d="M481.74,216.1c-33.26-11.31-43.49-51.33-57.15-80.53C415,115.08,396.65,72,367,89.58c-35.47,21.06-55,74.35-75.45,108.27-13.33,22.08-34.46,69.78-64.73,71.67-28.49,1.77-57.29-39.83-73.1-58C133.25,188.06,111,154,81.63,140.9c-26-11.59-50.93,10.19-69.2,26.38-23.36,20.7-43.22,42.9-75.09,48.81v-4.61c31.55-5.68,51.13-27.42,74.28-47.83,18.23-16.08,42.81-37.19,68.67-25.8,29.31,12.91,51.61,46.76,72.13,70.1,15.9,18.08,44.62,59.2,73.07,57.5,29.76-1.77,50.08-47.72,63.14-69.48,19.74-32.89,38.61-85,73.2-105.18,29-16.88,48.87,23.68,59.51,43.83,15.08,28.57,26.9,66.55,60.4,76.87Z"/><path class="cls-3" d="M481.74,224.4c-32.88-13-40.27-56.67-51.58-86.82C422.33,116.73,406.73,69,376,87.88c-15.91,9.75-29.47,32.17-39.18,47-14.18,21.7-26.67,44.46-40.15,66.58-13.8,22.64-36.32,73.35-67.46,75.4-28.55,1.88-57.46-40.52-73.14-58.73-20.47-23.77-42.67-58.29-72.11-71.63-26.33-11.93-51.76,11-70.09,27.37-23.73,21.2-44.07,44.21-76.48,50.49v-4.61c32.11-6.08,52.18-28.64,75.72-49.58,18.29-16.27,43.43-38.56,69.6-26.82,29.39,13.2,51.63,47.48,72.11,71.1,15.75,18.16,44.61,60.13,73.12,58.31,30.67-2,52.42-51,66-73.37C307,177.85,319,155.64,332.81,134.5c9.44-14.48,22.69-36.38,38.27-45.76,30.12-18.16,47.25,27,56,47.67,12.58,29.64,21.55,71.29,54.63,83.37Z"/><path class="cls-3" d="M481.74,232.69c-32.61-14.44-37.25-61.64-46.51-92.53-6.28-21-19.23-73.11-51.15-53.08-16.45,10.33-30.54,33.63-40.7,49.11-14.86,22.63-28,46.32-42.19,69.38s-38,76.6-69.93,78.78c-28.62,1.95-57.6-41.15-73.16-59.45-20.43-24-42.58-59-72.11-72.52C59.41,140.15,33.48,164.1,15.1,180.65c-24.06,21.65-44.83,45.42-77.75,52v-4.61c32.65-6.44,53.18-29.78,77.06-51.2,18.36-16.45,44-39.84,70.46-27.78,29.48,13.46,51.66,48.16,72.11,72,15.62,18.25,44.57,61,73.15,59.06,31.5-2.11,54.6-54.08,68.59-77,13.79-22.55,26.6-45.73,41.08-67.85,9.92-15.15,23.72-38,39.88-48C411,68,425.37,117.72,432.48,138.64c10.37,30.51,16.52,75.76,49.26,89.44Z"/><path class="cls-3" d="M481.74,241c-32.53-15.49-34.59-66-42.12-97.48-5-20.86-15.49-77-48.52-56-16.92,10.78-31.47,34.92-42,50.9-15.47,23.46-29.25,48-44,71.89C290.5,233.87,265.64,289.7,233,292c-28.69,2-57.71-41.69-73.17-60.07-20.39-24.24-42.49-59.55-72.09-73.31C61,146.1,34.63,170.92,16.2,187.61c-24.34,22-45.49,46.51-78.85,53.36v-4.62c33.12-6.72,54.07-30.8,78.26-52.64,18.41-16.62,44.52-41,71.22-28.63,29.56,13.66,51.68,48.77,72.09,72.89,15.52,18.33,44.52,61.7,73.17,59.73,32.24-2.21,56.53-56.78,70.92-80.12S330.9,160.05,346,137c10.34-15.71,24.64-39.4,41.31-49.94,32.42-20.51,44.25,33.51,49.93,54.43,8.45,31.17,11.91,79.87,44.46,94.84Z"/><path class="cls-3" d="M481.74,249.28c-32.6-15.95-32.63-69.72-38.59-101.46-3.89-20.73-12.43-80.14-46.42-58.36-17.28,11.08-32.24,36-43,52.31-16,24.18-30.3,49.43-45.59,74-14.86,23.91-40.55,81.64-73.67,83.92-28.77,2-57.78-42.14-73.17-60.6-20.34-24.4-42.42-60.08-72.08-74-27-12.64-53.63,12.85-72.11,29.67-24.55,22.35-46,47.44-79.73,54.42v-4.61c33.53-6.93,54.83-31.68,79.27-53.87C35.07,174,61.54,148.89,88.45,161.44c29.63,13.82,51.72,49.3,72.09,73.62,15.43,18.41,44.45,62.3,73.18,60.32,32.84-2.27,58.1-59,72.82-82.75,15-24.23,29-49.1,44.75-72.89,10.66-16.16,25.4-40.65,42.5-51.58,33.49-21.42,43,36.34,47.51,57.12,6.87,31.62,7.86,83.59,40.44,99.38Z"/><path class="cls-3" d="M481.74,257.57c-33.12-15.75-31.22-72.4-36.11-104.25-3.17-20.59-10.1-82.27-45-60-17.51,11.18-32.82,36.8-43.73,53.27-16.39,24.74-31.12,50.56-46.82,75.74-15.06,24.14-41.29,83.18-74.76,85.42-28.85,1.92-57.81-42.48-73.14-61-20.28-24.51-42.35-60.52-72.08-74.44C63,159.56,36.21,185.46,17.7,202.38-7,224.93-28.68,250.57-62.65,257.56v-4.62c33.84-7,55.43-32.35,80-54.8,18.49-16.86,45.18-42.57,72.28-29.88,29.7,13.91,51.77,49.74,72.08,74.2,15.36,18.48,44.35,62.74,73.16,60.78,33.3-2.26,59.27-60.65,74.23-84.68,15.49-24.88,30-50.4,46.18-74.85,10.86-16.42,26-41.65,43.39-52.8,34.39-22,42.14,38.54,45.68,59.19C449.83,181.92,449,237,481.74,253Z"/><path class="cls-3" d="M481.74,265.86C447.69,251.13,451,192,446.87,160.21c-2.7-20.61-8.68-83.17-44.24-60.88-17.59,11-33.18,37.31-44,53.68-16.68,25.13-31.69,51.35-47.68,76.91-15.16,24.24-41.56,83.91-75.19,86-28.92,1.83-57.78-42.66-73.07-61.23-20.23-24.55-42.3-60.86-72.08-74.72-27.32-12.72-54,13.3-72.55,30.29C-6.68,232.93-28.54,259-62.66,265.86v-4.62c34.06-6.94,55.85-32.79,80.54-55.4,18.53-17,45.27-42.94,72.53-30.21,29.74,13.91,51.81,50.05,72.07,74.59,15.31,18.54,44.23,63,73.11,61.12,33.57-2.19,59.92-61.6,75-85.81,15.85-25.37,30.72-51.39,47.25-76.33,10.92-16.45,26.35-42.38,43.92-53.52,35.2-22.32,41.62,39.95,44.54,60.51,4.52,31.83,1.92,89.65,35.4,105.06Z"/><path class="cls-3" d="M481.2,274.14c-33.72-15.69-30.26-74.5-34.49-106.6-2.81-21.34-9.19-82.62-44.92-59.27-17.65,11.53-33,37.56-44.08,54.32-16.54,25.11-31.45,51.27-47.38,76.77C295.4,263.26,269,322.64,235.57,324c-28.66,1.16-58.1-43.66-73.53-62-20.38-24.27-43-60.55-72.77-74.07C62,175.51,35.33,202,17.11,219c-24.45,22.85-46,49-80.32,55.18v-4.62c34.24-6.25,56.06-32.41,80.63-55.08,18.37-17,45.13-43.39,72.44-31.1,29.75,13.37,52.06,49.87,72.15,74.18,15.34,18.57,44.34,63.33,73.19,62.12,33.54-1.41,59.91-60.76,74.94-84.76,16-25.61,31.07-51.88,47.73-77.1,11-16.72,26.51-42.94,44.18-54.42,35.73-23.23,42,38.19,44.76,59.42,4.16,32.08.55,91.17,34.39,106.73Z"/><path class="cls-3" d="M481.2,282.43c-33.59-15.8-30.48-74-34.89-106.13-2.94-21.45-9.59-82.33-45.22-58.94-17.54,11.51-32.69,37.18-43.64,53.91C341.19,196.1,326.59,222,311,247.2c-14.73,23.76-40.82,82.68-74.06,84-28.52,1.15-59.08-43.69-74.88-61.76-21.16-24.21-44.54-60-74.65-73.74C60.07,183.31,33.92,209.62,16,227c-24,23.18-44.81,49.48-79.18,55.5v-4.61c34.38-6.08,55.62-32.3,79.91-55.3C34.8,205.4,61.29,179,88.56,191.41c29.89,13.62,52.79,49.71,73.48,74,15.56,18.23,45.45,63.08,74,61.93,33.36-1.34,59.67-60.59,74.51-84.42,15.81-25.39,30.59-51.44,47-76.44,11-16.76,26.31-42.64,43.92-54.17,35.71-23.39,42.19,37.73,45.05,59.13,4.3,32.1,1,90.67,34.64,106.43Z"/><path class="cls-3" d="M481.21,290.73c-33.53-15.75-30.87-73.34-35.52-105.4-3.1-21.46-10.16-81.79-45.58-58.52-17.3,11.37-32.15,36.65-42.89,53.2-15.88,24.47-30.08,50-45.33,74.84-14.5,23.64-39.93,81.53-72.91,83-28.61,1.22-60.67-43.52-77.08-61.36-22.21-24.16-46.67-59.49-77.4-73.25C57,190.9,31.8,216.94,14.18,234.73c-23.31,23.53-43.18,50-77.39,56v-4.61c34.32-6,54.74-32.37,78.46-55.71,17.81-17.51,43.6-43.72,71-31.34,30.36,13.73,54.18,49.35,75.78,73.53,16,18,47.22,62.78,75.76,61.6,33.13-1.36,59-59.89,73.6-83.59,15.47-25.07,29.91-50.8,46-75.48,10.87-16.66,25.89-42.16,43.34-53.62,35.55-23.36,42.36,37.29,45.37,58.75,4.51,32.09,1.59,90,35.15,105.84Z"/><path class="cls-3" d="M481.21,299c-33.53-15.56-31.4-72.44-36.33-104.44-3.29-21.39-10.85-81.05-46-58-17,11.13-31.46,36-41.9,52.27-15.42,24-29.15,49.1-43.92,73.51-14.25,23.53-38.72,79.94-71.39,81.49-28.91,1.38-62.76-43.19-80-60.84-23.5-24.09-49.28-58.9-80.87-72.62-27.73-12-51.77,13.59-69,32C-10.55,266.22-29.3,293-63.21,299v-4.62c34.1-6,53.49-32.61,76.41-56.3,17.46-18,42.2-43.91,69.77-31.71,31.08,13.75,56.1,48.85,78.86,73,16.74,17.75,49.56,62.42,78.29,61.14,32.84-1.47,57.88-58.75,72.27-82.34,15.05-24.67,29.05-50,44.73-74.27,10.62-16.45,25.31-41.54,42.49-52.82,35.29-23.18,42.56,36.87,45.75,58.31,4.76,32,2.32,89.32,35.85,105Z"/><path class="cls-3" d="M481.21,307.31c-33.58-15.27-32-71.38-37.29-103.3-3.49-21.23-11.66-80.13-46.39-57.48-16.59,10.82-30.65,35.23-40.72,51.15-14.89,23.53-28.08,48.08-42.32,72-14,23.44-37.26,78-69.55,79.74-29.3,1.57-65.42-42.71-83.48-60.24-24.78-24.05-52.39-58.33-84.94-71.89C48.46,205.59,25.83,230.71,9,249.83c-21.27,24.22-38.75,51.3-72.25,57.5v-4.61c33.74-6.12,51.94-33,73.85-57C27.69,227,51.13,201.56,79,213.46c31.93,13.62,58.68,48.2,82.62,72.31,17.49,17.61,52.47,62,81.47,60.58,32.51-1.63,56.48-57.26,70.61-80.75,14.54-24.19,28-49,43.23-72.85,10.28-16.13,24.58-40.8,41.4-51.8,34.95-22.86,42.77,36.47,46.15,57.8,5.07,32,3.19,88.5,36.74,104Z"/><path class="cls-3" d="M481.2,315.61c-33.66-14.91-32.75-70.22-38.36-102-3.71-21-12.54-79.08-46.84-56.9-16.14,10.45-29.73,34.4-39.38,49.89-14.31,23-26.91,47-40.57,70.34s-35.62,75.82-67.49,77.75c-29.92,1.81-68.23-42.16-87.4-59.56-26.41-24-55.67-57.7-89.44-71.08C43.27,212.74,22.16,237.29,5.9,257.23c-20,24.53-36.09,52-69.11,58.39V311c33.29-6.27,50.17-33.52,70.89-57.88,16.57-19.48,38.53-44.35,66.76-32.84,33.07,13.49,61.4,47.53,86.89,71.54,18.54,17.47,55.62,61.62,85.17,59.94,32.11-1.82,54.84-55.48,68.67-78.87,14-23.67,26.92-48,41.55-71.28,9.89-15.73,23.75-39.94,40.15-50.6,34.54-22.45,43,36.07,46.58,57.23,5.41,31.87,4.14,87.62,37.75,102.75Z"/><path class="cls-3" d="M481.2,323.91c-33.77-14.5-33.52-69-39.52-100.66-3.93-20.79-13.47-78-47.29-56.29-15.67,10-28.76,33.51-37.95,48.53-13.69,22.41-25.67,45.82-38.72,68.6-13.3,23.21-33.88,73.47-65.27,75.59-30.67,2.07-71.23-41.54-91.63-58.83C132.7,277,101.69,243.8,66.58,230.63c-28.87-10.83-48.4,13.11-64,33.93-18.64,24.81-33.27,52.75-65.75,59.36V319.3c32.78-6.47,48.24-34.15,67.64-58.81,16-20.33,36.4-44.61,65-33.52,34.35,13.29,64.38,46.79,91.54,70.7,19.71,17.35,59,61.16,89.25,59.24,31.66-2,53-53.52,66.52-76.81,13.39-23.1,25.72-46.84,39.76-69.57,9.44-15.29,22.82-39,38.75-49.3,34.09-22,43.23,35.71,47,56.63,5.79,31.76,5.17,86.7,38.87,101.43Z"/><path class="cls-3" d="M481.2,332.2c-34-14.11-34.12-67.62-40.72-99.23-4.27-20.48-14.37-76.83-47.76-55.66-15.17,9.61-27.75,32.58-36.45,47.11-13.07,21.82-24.41,44.62-36.82,66.8-12.91,23.08-32.08,71.07-63,73.35-31.5,2.33-74.33-40.89-96-58.07-29.9-23.7-62.69-56.38-99.21-69.33-58.13-20.6-73.6,84.11-124.47,95V327.6c50.8-10.59,70-115.06,127.44-94.06,35.73,13.07,67.53,46,96.44,69.83,21,17.23,62.53,60.67,93.55,58.49,31.18-2.2,51.13-51.45,64.26-74.61,12.77-22.51,24.47-45.65,37.88-67.8,9-14.8,21.85-38,37.29-47.9,33.67-21.48,43.36,35.38,47.5,56,6.37,31.68,6.1,85.67,40.05,100Z"/><path class="cls-3" d="M481.2,340.5c-34.14-13.67-34.91-66.32-41.93-97.81-4.5-20.21-15.32-75.65-48.23-55-14.66,9.19-26.72,31.66-35,45.7-12.43,21.22-23.13,43.41-34.9,65-12.51,22.91-30.31,68.69-60.66,71.1-32.38,2.58-77.42-40.23-100.41-57.31-31.68-23.54-66.26-55.72-104.21-68.43C-3.53,223.79-12.25,328.94-63.21,340.5v-4.61C-12.29,324.68.16,219.78,58.88,240.07,96,252.91,129.62,285.37,160.32,309c22.26,17.14,66.08,60.17,98,57.74,30.65-2.35,49.21-49.35,61.94-72.36,12.13-21.91,23.19-44.44,36-66,8.49-14.32,20.84-37.06,35.78-46.48,33.18-20.93,43.6,35,48,55.37,6.78,31.56,7.18,84.69,41.26,98.6Z"/><path class="cls-3" d="M481.19,348.8c-34.24-13.26-35.66-65.06-43.1-96.42-4.72-20-16.24-74.5-48.69-54.41-14.18,8.78-25.72,30.74-33.48,44.31-11.81,20.64-21.88,42.24-33,63.23-12.08,22.73-28.59,66.41-58.4,68.91-15.71,1.32-31.48-9.77-44.53-17.08-20.94-11.72-40.53-25.77-60.17-39.5-33.43-23.36-69.72-55-109.09-67.55C-10,231-12.19,336.61-63.21,348.8v-4.62c51-11.84,56.77-117.19,116.78-97.56,38.59,12.62,73.93,44.57,106.4,68,23.57,17,69.55,59.65,102.33,57,30.12-2.45,47.33-47.28,59.65-70.12,11.5-21.31,21.91-43.24,34.07-64.2,8-13.83,19.84-36.07,34.28-45.07C423,171.86,434.14,226.9,438.74,247c7.2,31.43,8.27,83.7,42.45,97.18Z"/><path class="cls-3" d="M481.19,357.09C446.87,344.21,444.82,293.24,437,262c-4.94-19.72-17.12-73.43-49.14-53.81-13.73,8.42-24.77,29.88-32.11,43-11.21,20.07-20.76,41.07-31.24,61.53-11.56,22.56-27.05,64.31-56.29,66.86-16,1.4-32.43-9.68-45.93-16.85-21.76-11.57-42.26-25.45-62.81-39-35.08-23.17-73-54.4-113.7-66.72-61.94-18.76-57.92,87.35-109,100.11v-4.61c51-12.46,50.4-118.28,111.67-99.24,40,12.42,77,43.9,111.17,67.18,20.05,13.66,40.06,27.63,61.37,39.28,13.25,7.25,29.32,18.34,45.17,17,29.58-2.53,45.55-45.33,57.44-68,10.88-20.74,20.68-42.07,32.23-62.46,7.57-13.37,18.88-35.12,32.85-43.73,32.26-19.87,44.07,34.29,48.9,54.14,7.62,31.32,9.32,82.74,43.6,95.83Z"/><path class="cls-3" d="M481.19,365.39c-34.37-12.59-37-62.77-45.21-93.92-5.16-19.54-17.93-72.48-49.58-53.25-31,18.83-45.11,71-60.45,101.81-11.15,22.37-25.62,62.44-54.37,65-16.28,1.46-33.26-9.6-47.15-16.65C201.9,357,180.57,343.22,159.19,329.8c-36.6-23-76-53.77-117.92-66C-21.8,245.49-12.12,352.14-63.21,365.38v-4.61C-12.15,347.78-18.75,241.44,43.7,260c41.28,12.27,79.86,43.29,115.64,66.38,20.92,13.51,41.8,27.32,63.91,38.83,13.69,7.12,30.37,18.19,46.5,16.76,29-2.56,44-43.54,55.41-66,10.23-20.22,19.52-41,30.49-60.82,7.16-13,18-34.21,31.53-42.48,31.85-19.43,44.3,33.93,49.34,53.56,8,31.21,10.32,81.82,44.67,94.56Z"/><path class="cls-3" d="M481.19,373.68c-34.38-12.38-37.5-61.84-46.08-92.89-5.35-19.39-18.64-71.7-50-52.75-30.15,18.24-43.37,69.42-57.91,99.42-10.77,22.2-24.4,60.86-52.73,63.45-16.38,1.5-34.08-9.41-48.13-16.49-23.08-11.62-45.24-24.9-67.38-38.2C121,313.41,80.39,283.05,37.37,270.91-26.7,252.83-12,360.11-63.21,373.68v-4.62c51.11-13.4,39.13-120.32,102.67-102.12,42.44,12.17,82.41,42.76,119.63,65.66,21.71,13.37,43.39,27,66.23,38.41,14,7,31.23,18.06,47.61,16.58,28.56-2.58,42.64-42,53.61-64.28,15-30.43,28.67-82.16,59.28-100.7,31.5-19.09,44.51,33.55,49.75,53,8.39,31.1,11.24,80.95,45.62,93.44Z"/><path class="cls-3" d="M481.19,382c-34.32-12.29-37.89-61.1-46.76-92.08-5.54-19.31-19.26-71.1-50.35-52.3-29.49,17.84-41.93,68-55.84,97.45-10.43,22.06-23.45,59.66-51.44,62.25-16.51,1.53-34.52-9.39-48.8-16.37-23.64-11.54-46.41-24.7-69.16-37.88-39.07-22.63-80.72-52.6-124.62-64.77-64.88-18-46.13,90-97.43,103.7v-4.61C-12,363.7-28.58,256.12,35.87,274.14c43.44,12.14,84.56,42.32,123,65.05,22.43,13.25,44.87,26.47,68.22,38.05,14.17,7,32,17.95,48.46,16.43,28.17-2.59,41.51-40.74,52.11-62.87,14.24-29.7,27.1-80.45,56.94-98.48,31.21-18.87,44.71,33.19,50.14,52.54,8.72,31,12.05,80.18,46.41,92.5Z"/><path class="cls-3" d="M481.19,390.26C447,377.93,443.06,329.66,434,298.75c-5.69-19.31-19.72-70.76-50.67-51.94-29,17.66-40.84,67-54.3,96-10.17,21.94-22.82,58.86-50.59,61.47-16.54,1.55-34.71-9.42-49.09-16.3-24.05-11.5-47.29-24.56-70.52-37.64C118.86,327.88,76.49,298.29,32,286c-65.48-18.1-43.66,90.68-95.19,104.28v-4.61c51.39-13.69,31.14-122,96.31-104,44.21,12.21,86.22,42,125.7,64.57,23,13.13,46,26.24,69.83,37.76,14.34,6.93,32.43,17.87,49,16.33,27.88-2.6,40.7-39.84,51-61.84,13.68-29.21,25.83-79,55.08-96.74,31-18.79,44.89,32.83,50.5,52.13,9,30.94,12.72,79.5,47,91.79Z"/><path class="cls-3" d="M481.2,398.55c-34-12.54-38.2-60.37-47.47-91.25-5.83-19.4-20-70.68-51-51.65-28.79,17.73-40.18,66.19-53.41,95.16-10,21.87-22.56,58.58-50.22,61.2-16.46,1.55-34.61-9.49-48.95-16.29-24.3-11.51-47.84-24.49-71.37-37.48-40.47-22.35-83.21-51.57-128-64.16-65.77-18.45-42.14,91.25-94,104.48V394c51.67-13.48,28.87-122.66,94.52-104.43,44.69,12.41,87.28,41.84,127.48,64.26,23.38,13,46.78,26.05,71,37.56,14.39,6.83,32.56,17.83,49.09,16.28,27.7-2.61,40.28-39.38,50.35-61.28,13.34-29,24.94-77.9,53.83-95.55,30.92-18.9,45.05,32.46,50.8,51.79,9.19,30.9,13.24,78.95,47.37,91.36C481.2,395.79,481.2,396.71,481.2,398.55Z"/><path class="cls-3" d="M481.21,406.82c-33.28-13.69-38.08-59.19-47.86-90.11-6-19-20.89-70.33-51-50.9-28.36,18.31-40,64.47-53.58,93.42-10.13,21.55-23.15,57.93-50.37,60.71-16.38,1.68-34.87-9.71-49.18-16.44-24-11.3-47.32-24-70.61-36.71-40.39-22-82.52-50.08-127-63.06C-32.49,285-13,392.49-63.21,406.86v-4.62C-12,388.53-34.17,279.42,31,298.08c44.74,12.81,87.29,41.58,127.8,63.85,23.48,12.9,47,25.79,71.19,37.24,14.32,6.78,32.63,18,49.06,16.39,27.5-2.7,40.24-39.39,50.26-61.14,13.37-29,24.79-76.6,53.42-94.64,30.6-19.29,45.07,32.24,50.93,51.45,9.45,30.94,13.85,77.9,47.56,91C481.2,404.06,481.2,405,481.21,406.82Z"/><path class="cls-3" d="M481.21,415.1c-32.58-14.05-38.34-56.61-48.86-87.17-6.5-18.91-22.2-68.23-51.46-49.16-27.84,18.14-40,61.64-54,90-10.45,21.07-24,56.12-50.66,58.92-16.24,1.7-34.72-9.58-49-16.17-23.48-10.87-46.3-23.06-69.1-35.28-39.8-21.33-81-47.94-124.55-60.79-62.44-18.43-47.78,84.9-96.82,99.71v-4.61C-13.59,395.87-31,290,32.41,308.69c44.1,13,85.85,40.42,126,62.19,23.1,12.51,46.21,25,70,36.14,14.29,6.68,32.82,18.08,49.16,16.38,27-2.82,40.22-38.72,50.48-60.07,13.81-28.76,25.61-73.76,53.74-92.09,29.72-19.36,45,31.33,51.15,50.24,10.08,30.82,15.28,75.06,48.23,89Z"/><path class="cls-3" d="M481.22,423.38c-32-13.59-38.93-52.92-50.39-82.68-7.34-19.07-23.88-64.63-52.36-46.59-27.3,17.28-40.11,57.92-54.62,85.15-10.91,20.46-25,53.34-51,56-16.09,1.64-34-9.21-48.26-15.48-22.85-10-44.93-21.79-67-33.34-38.81-20.27-78.83-45.28-121.12-57.55-60.77-17.63-51.18,80.09-99.6,94.56v-4.61c48.7-14.75,36.26-115.75,98-97.63,43,12.65,83.74,38.57,123.14,59.47,22.53,11.95,45.06,23.86,68.25,34.47,14.2,6.51,32.56,17.6,48.71,15.92,26.38-2.75,40.17-36.93,50.81-57.75,14.25-27.91,26.66-70.17,54.26-88,28.91-18.68,45,29.15,51.82,48.11,10.91,30.25,17.17,71.42,49.47,85.35C481.22,420.61,481.22,421.54,481.22,423.38Z"/><path class="cls-3" d="M481.22,431.67c-31.47-12.5-39.76-48.32-52.35-76.91-8.5-19.28-25.86-59.81-53.61-43.32-26.73,15.88-40.38,53.44-55.38,79.13-11.51,19.72-26.17,49.74-51.51,52.13-15.77,1.48-33.05-8.49-47.15-14.45-22-9.31-43.24-20.22-64.52-31-37.51-18.95-76.12-42.18-116.82-53.5-59.1-16.44-54.89,74.47-103.09,88v-4.62c48.29-14.1,41-108.94,101.07-91.79,41.62,11.88,81,36.13,119.31,55.84,21.76,11.21,43.5,22.6,66,32.34,14.19,6.14,31.85,16.64,47.81,15.06,25.73-2.55,40.08-34.23,51.24-54.38,14.72-26.59,27.89-65.89,54.94-82.61,28.16-17.4,45.06,26.05,52.88,45.21,11.93,29.29,19.46,67.09,51.21,80.27Z"/><path class="cls-3" d="M481.21,440c-31-11-40.71-43-54.66-70.12-10-19.37-28.12-54.06-55.13-39.5-26.15,14.09-40.73,48.35-56.26,72.18C302.91,421.35,287.71,448,263.11,450c-32.75,2.71-79.72-28-107.36-41.4-35.95-17.4-73-38.7-111.82-48.8C-13.41,344.93-15,428.05-63.21,440v-4.61C-15,422.54-16.72,335,41.62,350.78c39.91,10.81,77.82,33.2,114.67,51.48,20.88,10.36,41.75,20.87,63.29,29.8,14,5.81,30.94,15.3,46.55,13.91,25-2.24,39.92-30.82,51.74-50.16,15.23-24.9,29.28-61,55.76-76.15C401,304,418.76,342,427.88,361.35c13.17,27.95,22.09,62.14,53.33,74Z"/><path class="cls-3" d="M481.21,448.28C450.76,439.15,439.48,411,424,385.74c-11.75-19.13-30.59-47.66-56.86-35.26-44,20.78-57.51,103.23-109.87,106.82-32,2.2-75-24.3-102.52-36.92-34.23-15.67-69.49-34.9-106.32-43.6C-7.1,363.68-15,438.23-63.21,448.32v-4.61c48.2-11.18,52.54-90.58,109.08-76.44,38,9.49,74.22,29.89,109.43,46.54,27.6,13.05,72.83,41.95,105.27,39.46,24.25-1.86,39.68-26.9,52.31-45.25,15.79-22.93,30.79-55.65,56.68-68.86,26.68-13.62,45.14,18.35,55.87,37.66,14.62,26.31,25,56.66,55.78,66.84Z"/><path class="cls-3" d="M481.2,456.59c-29.88-7.15-42.74-31.36-60-54.45-13.76-18.4-33.18-40.89-58.73-30.74C318.21,389,301.94,461.8,251,464.51c-31.22,1.65-69.83-20.47-97.34-32.12-32.46-13.75-65.73-30.89-100.46-38.08-53.6-11.1-68.22,54.33-116.36,62.31V452c48.19-9.17,59-79.73,113.69-67.5,35.94,8.05,70.25,26.41,103.75,41.19,27.61,12.17,68.54,36.77,100.26,34.81,51.77-3.2,66.44-81.41,110.59-100.81C391,348.28,410.14,374.1,422.76,393,439,417.3,451,443.71,481.21,452,481.2,453.82,481.2,454.74,481.2,456.59Z"/><path class="cls-3" d="M481.2,464.9c-29.25-5.18-43.74-25.52-62.85-46.08-15.87-17.08-35.78-34-60.67-26.08-44.28,14.13-63.82,77.1-113.23,78.95-30.2,1.13-64.74-16.59-92-27.16-30.57-11.86-61.93-26.75-94.42-32.39-51.79-9-73.32,47-121.27,52.77V460.3c48.06-7,65.75-68.26,118.53-58.09,33.74,6.5,66.17,22.64,97.79,35.56,27.41,11.19,64.18,31.34,95,29.93,50.32-2.32,68-70.78,112.28-86.85,25.25-9.17,44.9,10.78,59.59,28.68,18.07,22,31.64,44.48,61.25,50.75Z"/><path class="cls-3" d="M481.19,473.22c-48.62-5.72-76.15-71.69-128.32-59.11-43.95,10.59-67.32,63.66-114.94,64.76-60.13,1.38-116-40.82-175-48.88-50.2-6.85-78.47,39.48-126.17,43.21v-4.61c47.84-4.87,72.4-56.55,123.45-48.51,31.5,5,62,18.84,91.73,29.85,27.06,10,59.88,25.86,89.57,24.94,48.65-1.5,69.82-60.07,114-72.62,51.8-14.72,78.11,59.19,125.66,66.34Z"/><path class="cls-3" d="M481.18,481.53c-49.6-3.14-80.95-55.12-133-46.43-43.28,7.23-70.9,50.46-116.6,51-56.5.63-108.14-33.05-163.87-38.5-49-4.79-83.44,32-130.95,33.93v-4.62c47.6-2.88,78.7-45,128.32-39,57.59,6.87,111.42,45.23,170,44.21,46.77-.81,72-49.5,115.68-58.57C403,412.65,432,472.35,481.19,476.91,481.19,478.75,481.19,479.68,481.18,481.53Z"/><path class="cls-3" d="M481.18,489.83c-49.54-.84-86.32-39.65-137.33-34.5-42.4,4.28-74.31,37.89-118.17,38-52.66.13-101.25-25.63-153.43-28.73-48.28-2.86-88,24.86-135.46,25.2v-4.61c47.47-1.16,84.36-33.88,133-30,54.18,4.36,104.34,34.45,159.14,34.07,44.85-.31,74.41-39.22,117.31-45.08,51.64-7.06,85.28,38.95,135,41Z"/><path class="cls-3" d="M481.18,498.14c-49,.89-91.44-26-141.23-23.74-41.56,1.89-77.27,26.38-119.61,26.26-48.93-.15-95.31-18.09-144-19.89-48-1.78-91.91,18.15-139.56,17.31v-4.61c47.5.23,89.23-23.66,137.34-21.58,50.6,2.19,98.13,24.66,149.09,24.68,43.13,0,76.83-29.47,118.83-32.61,50.46-3.78,89.81,29.56,139.13,29.56Z"/><path class="cls-3" d="M481.18,506.43c-48.64,2-95.53-14.72-144.51-14.51-41,.18-79.53,16.39-120.87,16.17-45.73-.25-90.28-11.79-135.89-12.28-48.22-.53-95.06,12.13-143.12,10.57v-4.62C-15.4,503,29.92,486.41,78,487.6c47.25,1.16,92.77,16.13,140.21,16.34,41.82.18,78.93-20.5,120.19-21.55,49.36-1.25,94,20.89,142.77,19.43Z"/><path class="cls-3" d="M481.18,514.72c-48.75,2.28-98.16-6.27-147-7.22-40.75-.79-81,8.38-121.89,8.15C169,515.4,126,509.14,82.78,509.43c-48.67.32-97.37,7-146,5.24v-4.61c48.29,1.72,96.09-8.1,144.49-8,44.45.08,88.29,9.13,132.82,9.39,41.07.23,80.52-12.68,121.35-12.33,48.85.42,97.1,13.22,145.73,11Z"/><path class="cls-3" d="M481.18,523c-49.29,1.71-99.29-1.16-148.61-2.25-40.84-.9-81.76,2.79-122.64,2.62-41.71-.17-83.39-2.07-125.1-2-49.32,0-98.73,2.92-148,1.62v-4.61c49,1.65,98-3.56,147-3.41,42.47.13,84.78,3.89,127.27,4.11,40.84.21,81.5-6.31,122.26-5.36,49,1.15,98.89,6.85,147.85,4.7Z"/><path class="cls-3" d="M481.19,531.26H-63.21v-4.62c90.76,1.53,181.75,0,272.54.2,90.46.24,181.45,1.84,271.86-.18Z"/></g></svg>